<?xml version="1.0" encoding="UTF-8" standalone="no"?>
<!DOCTYPE svg PUBLIC "-//W3C//DTD SVG 1.1//EN"
 "http://www.w3.org/Graphics/SVG/1.1/DTD/svg11.dtd">
<!-- Generated by graphviz version 2.26.3 (20100126.1600)
 -->
<!-- Title: Dependencies Pages: 1 -->
<svg width="1384pt" height="591pt"
 viewBox="0.00 0.00 1384.00 591.00" xmlns="http://www.w3.org/2000/svg" xmlns:xlink="http://www.w3.org/1999/xlink">
<g id="graph1" class="graph" transform="scale(1 1) rotate(0) translate(4 587)">
<title>Dependencies</title>
<polygon fill="white" stroke="white" points="-4,5 -4,-587 1381,-587 1381,5 -4,5"/>
<g id="graph2" class="cluster"><title>cluster_Component1</title>
<polygon fill="none" stroke="black" points="702,-101 702,-396 1368,-396 1368,-101 702,-101"/>
<text text-anchor="middle" x="1035" y="-107.4" font-family="Times,serif" font-size="14.00">Component1</text>
</g>
<g id="graph3" class="cluster"><title>cluster_Component2</title>
<polygon fill="none" stroke="black" points="8,-8 8,-396 694,-396 694,-8 8,-8"/>
<text text-anchor="middle" x="351" y="-14.4" font-family="Times,serif" font-size="14.00">Component2</text>
</g>
<g id="graph4" class="cluster"><title>cluster_global</title>
<polygon fill="none" stroke="black" points="586,-404 586,-519 800,-519 800,-404 586,-404"/>
<text text-anchor="middle" x="693" y="-410.4" font-family="Times,serif" font-size="14.00">global</text>
</g>
<!-- com_tw_maven_demo_component1__a -->
<g id="node2" class="node"><title>com_tw_maven_demo_component1__a</title>
<ellipse fill="none" stroke="black" cx="863" cy="-249" rx="152.942" ry="26.8701"/>
<text text-anchor="middle" x="863" y="-251.4" font-family="Times,serif" font-size="14.00">com.tw.maven_demo.component1</text>
<text text-anchor="middle" x="863" y="-236.4" font-family="Times,serif" font-size="14.00">a</text>
</g>
<!-- com_tw_maven_demo_component1__parent -->
<g id="node5" class="node"><title>com_tw_maven_demo_component1__parent</title>
<ellipse fill="none" stroke="black" cx="1025" cy="-350" rx="152.942" ry="37.4767"/>
<text text-anchor="middle" x="1025" y="-359.9" font-family="Times,serif" font-size="14.00">com.tw.maven_demo.component1</text>
<text text-anchor="middle" x="1025" y="-344.9" font-family="Times,serif" font-size="14.00">parent</text>
<text text-anchor="middle" x="1025" y="-329.9" font-family="Times,serif" font-size="14.00">1.0.1</text>
</g>
<!-- com_tw_maven_demo_component1__a&#45;&gt;com_tw_maven_demo_component1__parent -->
<g id="edge19" class="edge"><title>com_tw_maven_demo_component1__a&#45;&gt;com_tw_maven_demo_component1__parent</title>
<path fill="none" stroke="red" d="M904.719,-275.01C921.629,-285.553 941.553,-297.974 960.268,-309.642"/>
<polygon fill="red" stroke="red" points="958.429,-312.62 968.767,-314.941 962.132,-306.68 958.429,-312.62"/>
</g>
<!-- com_tw_maven_demo_component1__b -->
<g id="node3" class="node"><title>com_tw_maven_demo_component1__b</title>
<ellipse fill="none" stroke="black" cx="1187" cy="-249" rx="152.942" ry="26.8701"/>
<text text-anchor="middle" x="1187" y="-251.4" font-family="Times,serif" font-size="14.00">com.tw.maven_demo.component1</text>
<text text-anchor="middle" x="1187" y="-236.4" font-family="Times,serif" font-size="14.00">b</text>
</g>
<!-- com_tw_maven_demo_component1__b&#45;&gt;com_tw_maven_demo_component1__parent -->
<g id="edge21" class="edge"><title>com_tw_maven_demo_component1__b&#45;&gt;com_tw_maven_demo_component1__parent</title>
<path fill="none" stroke="red" d="M1145.28,-275.01C1128.37,-285.553 1108.45,-297.974 1089.73,-309.642"/>
<polygon fill="red" stroke="red" points="1087.87,-306.68 1081.23,-314.941 1091.57,-312.62 1087.87,-306.68"/>
</g>
<!-- com_tw_maven_demo_component1__c -->
<g id="node4" class="node"><title>com_tw_maven_demo_component1__c</title>
<ellipse fill="none" stroke="black" cx="1187" cy="-159" rx="152.942" ry="26.8701"/>
<text text-anchor="middle" x="1187" y="-161.4" font-family="Times,serif" font-size="14.00">com.tw.maven_demo.component1</text>
<text text-anchor="middle" x="1187" y="-146.4" font-family="Times,serif" font-size="14.00">c</text>
</g>
<!-- com_tw_maven_demo_component1__c&#45;&gt;com_tw_maven_demo_component1__a -->
<g id="edge5" class="edge"><title>com_tw_maven_demo_component1__c&#45;&gt;com_tw_maven_demo_component1__a</title>
<path fill="none" stroke="black" d="M1104.82,-181.827C1059.14,-194.517 1002.17,-210.342 954.999,-223.445"/>
<polygon fill="black" stroke="black" points="953.789,-220.148 945.09,-226.197 955.662,-226.893 953.789,-220.148"/>
</g>
<!-- com_tw_maven_demo_component1__c&#45;&gt;com_tw_maven_demo_component1__b -->
<g id="edge7" class="edge"><title>com_tw_maven_demo_component1__c&#45;&gt;com_tw_maven_demo_component1__b</title>
<path fill="none" stroke="black" d="M1187,-186.003C1187,-194.028 1187,-202.967 1187,-211.531"/>
<polygon fill="black" stroke="black" points="1183.5,-211.705 1187,-221.705 1190.5,-211.705 1183.5,-211.705"/>
</g>
<!-- com_tw_maven_demo_component1__c&#45;&gt;com_tw_maven_demo_component1__parent -->
<g id="edge27" class="edge"><title>com_tw_maven_demo_component1__c&#45;&gt;com_tw_maven_demo_component1__parent</title>
<path fill="none" stroke="red" d="M1270.05,-181.809C1304.63,-193.141 1339.08,-207.492 1349,-222 1362.55,-241.809 1363.96,-257.235 1349,-276 1326.63,-304.06 1249.49,-322.323 1176.1,-333.685"/>
<polygon fill="red" stroke="red" points="1175.14,-330.29 1165.77,-335.243 1176.18,-337.212 1175.14,-330.29"/>
</g>
<!-- com_tw_maven_demo__global -->
<g id="node13" class="node"><title>com_tw_maven_demo__global</title>
<ellipse fill="none" stroke="black" cx="693" cy="-473" rx="99.201" ry="37.4767"/>
<text text-anchor="middle" x="693" y="-482.9" font-family="Times,serif" font-size="14.00">com.tw.maven_demo</text>
<text text-anchor="middle" x="693" y="-467.9" font-family="Times,serif" font-size="14.00">global</text>
<text text-anchor="middle" x="693" y="-452.9" font-family="Times,serif" font-size="14.00">1.0.1</text>
</g>
<!-- com_tw_maven_demo_component1__parent&#45;&gt;com_tw_maven_demo__global -->
<g id="edge31" class="edge"><title>com_tw_maven_demo_component1__parent&#45;&gt;com_tw_maven_demo__global</title>
<path fill="none" stroke="red" d="M940.363,-381.356C889.106,-400.346 824.098,-424.43 773.59,-443.143"/>
<polygon fill="red" stroke="red" points="772.173,-439.935 764.012,-446.691 774.605,-446.499 772.173,-439.935"/>
</g>
<!-- com_tw_maven_demo_component2__parent -->
<g id="node7" class="node"><title>com_tw_maven_demo_component2__parent</title>
<ellipse fill="none" stroke="black" cx="361" cy="-350" rx="152.942" ry="37.4767"/>
<text text-anchor="middle" x="361" y="-359.9" font-family="Times,serif" font-size="14.00">com.tw.maven_demo.component2</text>
<text text-anchor="middle" x="361" y="-344.9" font-family="Times,serif" font-size="14.00">parent</text>
<text text-anchor="middle" x="361" y="-329.9" font-family="Times,serif" font-size="14.00">1.0.1</text>
</g>
<!-- com_tw_maven_demo_component2__parent&#45;&gt;com_tw_maven_demo__global -->
<g id="edge23" class="edge"><title>com_tw_maven_demo_component2__parent&#45;&gt;com_tw_maven_demo__global</title>
<path fill="none" stroke="red" d="M445.637,-381.356C496.894,-400.346 561.902,-424.43 612.41,-443.143"/>
<polygon fill="red" stroke="red" points="611.395,-446.499 621.988,-446.691 613.827,-439.935 611.395,-446.499"/>
</g>
<!-- com_tw_maven_demo_component2__d -->
<g id="node8" class="node"><title>com_tw_maven_demo_component2__d</title>
<ellipse fill="none" stroke="black" cx="533" cy="-249" rx="152.942" ry="26.8701"/>
<text text-anchor="middle" x="533" y="-251.4" font-family="Times,serif" font-size="14.00">com.tw.maven_demo.component2</text>
<text text-anchor="middle" x="533" y="-236.4" font-family="Times,serif" font-size="14.00">d</text>
</g>
<!-- com_tw_maven_demo_component2__d&#45;&gt;com_tw_maven_demo_component2__parent -->
<g id="edge25" class="edge"><title>com_tw_maven_demo_component2__d&#45;&gt;com_tw_maven_demo_component2__parent</title>
<path fill="none" stroke="red" d="M488.706,-275.01C470.498,-285.702 448.999,-298.326 428.884,-310.138"/>
<polygon fill="red" stroke="red" points="426.912,-307.237 420.061,-315.319 430.457,-313.273 426.912,-307.237"/>
</g>
<!-- com_tw_maven_demo_component2__e -->
<g id="node9" class="node"><title>com_tw_maven_demo_component2__e</title>
<ellipse fill="none" stroke="black" cx="189" cy="-249" rx="152.942" ry="26.8701"/>
<text text-anchor="middle" x="189" y="-251.4" font-family="Times,serif" font-size="14.00">com.tw.maven_demo.component2</text>
<text text-anchor="middle" x="189" y="-236.4" font-family="Times,serif" font-size="14.00">e</text>
</g>
<!-- com_tw_maven_demo_component2__e&#45;&gt;com_tw_maven_demo_component2__parent -->
<g id="edge29" class="edge"><title>com_tw_maven_demo_component2__e&#45;&gt;com_tw_maven_demo_component2__parent</title>
<path fill="none" stroke="red" d="M233.294,-275.01C251.502,-285.702 273.001,-298.326 293.116,-310.138"/>
<polygon fill="red" stroke="red" points="291.543,-313.273 301.939,-315.319 295.088,-307.237 291.543,-313.273"/>
</g>
<!-- com_tw_maven_demo_component2__f -->
<g id="node10" class="node"><title>com_tw_maven_demo_component2__f</title>
<ellipse fill="none" stroke="black" cx="447" cy="-159" rx="152.942" ry="26.8701"/>
<text text-anchor="middle" x="447" y="-161.4" font-family="Times,serif" font-size="14.00">com.tw.maven_demo.component2</text>
<text text-anchor="middle" x="447" y="-146.4" font-family="Times,serif" font-size="14.00">f</text>
</g>
<!-- com_tw_maven_demo_component2__f&#45;&gt;com_tw_maven_demo_component1__a -->
<g id="edge9" class="edge"><title>com_tw_maven_demo_component2__f&#45;&gt;com_tw_maven_demo_component1__a</title>
<path fill="none" stroke="black" d="M543.746,-179.931C607.337,-193.688 690.586,-211.699 756.129,-225.879"/>
<polygon fill="black" stroke="black" points="755.564,-229.338 766.078,-228.031 757.045,-222.496 755.564,-229.338"/>
</g>
<!-- com_tw_maven_demo_component2__f&#45;&gt;com_tw_maven_demo_component1__b -->
<g id="edge11" class="edge"><title>com_tw_maven_demo_component2__f&#45;&gt;com_tw_maven_demo_component1__b</title>
<path fill="none" stroke="black" d="M577.759,-173.063C741.432,-190.694 1003.14,-218.99 1025,-222 1039,-223.928 1053.65,-226.122 1068.18,-228.405"/>
<polygon fill="black" stroke="black" points="1067.78,-231.886 1078.2,-229.999 1068.88,-224.973 1067.78,-231.886"/>
</g>
<!-- com_tw_maven_demo_component2__f&#45;&gt;com_tw_maven_demo_component2__parent -->
<g id="edge33" class="edge"><title>com_tw_maven_demo_component2__f&#45;&gt;com_tw_maven_demo_component2__parent</title>
<path fill="none" stroke="red" d="M403.921,-184.95C391.154,-194.883 378.573,-207.394 371,-222 358.331,-246.436 355.557,-277.081 356.081,-302.258"/>
<polygon fill="red" stroke="red" points="352.586,-302.465 356.467,-312.323 359.581,-302.196 352.586,-302.465"/>
</g>
<!-- com_tw_maven_demo_component2__f&#45;&gt;com_tw_maven_demo_component2__d -->
<g id="edge13" class="edge"><title>com_tw_maven_demo_component2__f&#45;&gt;com_tw_maven_demo_component2__d</title>
<path fill="none" stroke="black" d="M472.803,-186.003C481.47,-195.073 491.252,-205.311 500.373,-214.856"/>
<polygon fill="black" stroke="black" points="498.073,-217.514 507.512,-222.326 503.134,-212.678 498.073,-217.514"/>
</g>
<!-- com_tw_maven_demo_component2__f&#45;&gt;com_tw_maven_demo_component2__e -->
<g id="edge15" class="edge"><title>com_tw_maven_demo_component2__f&#45;&gt;com_tw_maven_demo_component2__e</title>
<path fill="none" stroke="black" d="M377.861,-183.118C344.025,-194.922 303.129,-209.188 268.057,-221.422"/>
<polygon fill="black" stroke="black" points="266.619,-218.217 258.33,-224.815 268.925,-224.826 266.619,-218.217"/>
</g>
<!-- com_tw_maven_demo_component2__g -->
<g id="node11" class="node"><title>com_tw_maven_demo_component2__g</title>
<ellipse fill="none" stroke="black" cx="308" cy="-66" rx="152.942" ry="26.8701"/>
<text text-anchor="middle" x="308" y="-68.4" font-family="Times,serif" font-size="14.00">com.tw.maven_demo.component2</text>
<text text-anchor="middle" x="308" y="-53.4" font-family="Times,serif" font-size="14.00">g</text>
</g>
<!-- com_tw_maven_demo_component2__g&#45;&gt;com_tw_maven_demo_component2__parent -->
<g id="edge35" class="edge"><title>com_tw_maven_demo_component2__g&#45;&gt;com_tw_maven_demo_component2__parent</title>
<path fill="none" stroke="red" d="M226.738,-89.061C121.5,-122.957 -40.8601,-191.459 27,-276 50.4387,-305.2 131.814,-323.588 208.368,-334.73"/>
<polygon fill="red" stroke="red" points="208.252,-338.249 218.645,-336.188 209.235,-331.318 208.252,-338.249"/>
</g>
<!-- com_tw_maven_demo_component2__g&#45;&gt;com_tw_maven_demo_component2__f -->
<g id="edge17" class="edge"><title>com_tw_maven_demo_component2__g&#45;&gt;com_tw_maven_demo_component2__f</title>
<path fill="none" stroke="black" d="M347.089,-92.1532C363.227,-102.95 382.089,-115.57 399.051,-126.919"/>
<polygon fill="black" stroke="black" points="397.465,-130.069 407.723,-132.721 401.358,-124.251 397.465,-130.069"/>
</g>
<!-- __ -->
<g id="node31" class="node"><title>__</title>
<ellipse fill="none" stroke="black" cx="693" cy="-565" rx="27" ry="18"/>
<text text-anchor="middle" x="693" y="-559.9" font-family="Times,serif" font-size="14.00">__</text>
</g>
<!-- com_tw_maven_demo__global&#45;&gt;__ -->
<g id="edge37" class="edge"><title>com_tw_maven_demo__global&#45;&gt;__</title>
<path fill="none" stroke="red" d="M693,-510.685C693,-519.38 693,-528.485 693,-536.701"/>
<polygon fill="red" stroke="red" points="689.5,-536.88 693,-546.88 696.5,-536.88 689.5,-536.88"/>
</g>
</g>
</svg>
