<?xml version="1.0" encoding="UTF-8" standalone="no"?>
<!DOCTYPE svg PUBLIC "-//W3C//DTD SVG 1.1//EN"
 "http://www.w3.org/Graphics/SVG/1.1/DTD/svg11.dtd">
<!-- Generated by graphviz version 2.26.3 (20100126.1600)
 -->
<!-- Title: RGL__DirectedAdjacencyGraph Pages: 1 -->
<svg width="96pt" height="116pt"
 viewBox="0.00 0.00 96.00 116.00" xmlns="http://www.w3.org/2000/svg" xmlns:xlink="http://www.w3.org/1999/xlink">
<g id="graph1" class="graph" transform="scale(1 1) rotate(0) translate(4 112)">
<title>RGL__DirectedAdjacencyGraph</title>
<polygon fill="white" stroke="white" points="-4,5 -4,-112 93,-112 93,5 -4,5"/>
<!-- Component1 -->
<g id="node1" class="node"><title>Component1</title>
<ellipse fill="none" stroke="black" cx="35" cy="-18" rx="35.1681" ry="18"/>
<text text-anchor="middle" x="35" y="-15.3" font-family="Times,serif" font-size="8.00">Component1</text>
</g>
<!-- Component1&#45;&gt;Component1 -->
<g id="edge2" class="edge"><title>Component1&#45;&gt;Component1</title>
<path fill="none" stroke="black" d="M59.8081,-30.7082C74.3699,-33.4157 88,-29.1797 88,-18 88,-9.52789 80.1725,-5.04337 70.0438,-4.54645"/>
<polygon fill="black" stroke="black" points="69.5274,-1.07469 59.8081,-5.29184 70.0359,-8.0562 69.5274,-1.07469"/>
</g>
<!-- Component2 -->
<g id="node2" class="node"><title>Component2</title>
<ellipse fill="none" stroke="black" cx="35" cy="-90" rx="35.1681" ry="18"/>
<text text-anchor="middle" x="35" y="-87.3" font-family="Times,serif" font-size="8.00">Component2</text>
</g>
<!-- Component2&#45;&gt;Component1 -->
<g id="edge4" class="edge"><title>Component2&#45;&gt;Component1</title>
<path fill="none" stroke="black" d="M35,-71.8314C35,-64.131 35,-54.9743 35,-46.4166"/>
<polygon fill="black" stroke="black" points="38.5001,-46.4132 35,-36.4133 31.5001,-46.4133 38.5001,-46.4132"/>
</g>
<!-- Component2&#45;&gt;Component2 -->
<g id="edge6" class="edge"><title>Component2&#45;&gt;Component2</title>
<path fill="none" stroke="black" d="M59.8081,-102.708C74.3699,-105.416 88,-101.18 88,-90 88,-81.5279 80.1725,-77.0434 70.0438,-76.5464"/>
<polygon fill="black" stroke="black" points="69.5274,-73.0747 59.8081,-77.2918 70.0359,-80.0562 69.5274,-73.0747"/>
</g>
</g>
</svg>
