<?xml version="1.0" encoding="UTF-8" standalone="no"?>
<!DOCTYPE svg PUBLIC "-//W3C//DTD SVG 1.1//EN"
 "http://www.w3.org/Graphics/SVG/1.1/DTD/svg11.dtd">
<!-- Generated by graphviz version 2.26.3 (20100126.1600)
 -->
<!-- Title: Dependencies Pages: 1 -->
<svg width="1546pt" height="352pt"
 viewBox="0.00 0.00 1546.00 352.00" xmlns="http://www.w3.org/2000/svg" xmlns:xlink="http://www.w3.org/1999/xlink">
<g id="graph1" class="graph" transform="scale(1 1) rotate(0) translate(4 348)">
<title>Dependencies</title>
<polygon fill="white" stroke="white" points="-4,5 -4,-348 1543,-348 1543,5 -4,5"/>
<g id="graph2" class="cluster"><title>cluster_Component1</title>
<polygon fill="none" stroke="black" points="8,-131 8,-336 654,-336 654,-131 8,-131"/>
<text text-anchor="middle" x="331" y="-137.4" font-family="Times,serif" font-size="14.00">Component1</text>
</g>
<g id="graph3" class="cluster"><title>cluster_Component2</title>
<polygon fill="none" stroke="black" points="662,-8 662,-336 1308,-336 1308,-8 662,-8"/>
<text text-anchor="middle" x="985" y="-14.4" font-family="Times,serif" font-size="14.00">Component2</text>
</g>
<g id="graph4" class="cluster"><title>cluster_global</title>
<polygon fill="none" stroke="black" points="1316,-8 1316,-123 1530,-123 1530,-8 1316,-8"/>
<text text-anchor="middle" x="1423" y="-14.4" font-family="Times,serif" font-size="14.00">global</text>
</g>
<!-- com_tw_maven_demo_component1__a -->
<g id="node2" class="node"><title>com_tw_maven_demo_component1__a</title>
<ellipse fill="none" stroke="black" cx="169" cy="-301" rx="152.942" ry="26.8701"/>
<text text-anchor="middle" x="169" y="-303.4" font-family="Times,serif" font-size="14.00">com.tw.maven_demo.component1</text>
<text text-anchor="middle" x="169" y="-288.4" font-family="Times,serif" font-size="14.00">a</text>
</g>
<!-- com_tw_maven_demo_component1__b -->
<g id="node3" class="node"><title>com_tw_maven_demo_component1__b</title>
<ellipse fill="none" stroke="black" cx="493" cy="-301" rx="152.942" ry="26.8701"/>
<text text-anchor="middle" x="493" y="-303.4" font-family="Times,serif" font-size="14.00">com.tw.maven_demo.component1</text>
<text text-anchor="middle" x="493" y="-288.4" font-family="Times,serif" font-size="14.00">b</text>
</g>
<!-- com_tw_maven_demo_component1__c -->
<g id="node4" class="node"><title>com_tw_maven_demo_component1__c</title>
<ellipse fill="none" stroke="black" cx="493" cy="-200" rx="152.942" ry="26.8701"/>
<text text-anchor="middle" x="493" y="-202.4" font-family="Times,serif" font-size="14.00">com.tw.maven_demo.component1</text>
<text text-anchor="middle" x="493" y="-187.4" font-family="Times,serif" font-size="14.00">c</text>
</g>
<!-- com_tw_maven_demo_component1__c&#45;&gt;com_tw_maven_demo_component1__a -->
<g id="edge5" class="edge"><title>com_tw_maven_demo_component1__c&#45;&gt;com_tw_maven_demo_component1__a</title>
<path fill="none" stroke="black" d="M417.445,-223.553C368.521,-238.804 304.722,-258.692 254.025,-274.495"/>
<polygon fill="black" stroke="black" points="252.899,-271.18 244.394,-277.498 254.982,-277.863 252.899,-271.18"/>
</g>
<!-- com_tw_maven_demo_component1__c&#45;&gt;com_tw_maven_demo_component1__b -->
<g id="edge7" class="edge"><title>com_tw_maven_demo_component1__c&#45;&gt;com_tw_maven_demo_component1__b</title>
<path fill="none" stroke="black" d="M493,-227.066C493,-238.274 493,-251.461 493,-263.571"/>
<polygon fill="black" stroke="black" points="489.5,-263.859 493,-273.859 496.5,-263.859 489.5,-263.859"/>
</g>
<!-- com_tw_maven_demo_component1__parent -->
<g id="node5" class="node"><title>com_tw_maven_demo_component1__parent</title>
<ellipse fill="none" stroke="black" cx="169" cy="-200" rx="152.942" ry="37.4767"/>
<text text-anchor="middle" x="169" y="-209.9" font-family="Times,serif" font-size="14.00">com.tw.maven_demo.component1</text>
<text text-anchor="middle" x="169" y="-194.9" font-family="Times,serif" font-size="14.00">parent</text>
<text text-anchor="middle" x="169" y="-179.9" font-family="Times,serif" font-size="14.00">2.1.0</text>
</g>
<!-- com_tw_maven_demo_component2__parent -->
<g id="node7" class="node"><title>com_tw_maven_demo_component2__parent</title>
<ellipse fill="none" stroke="black" cx="1147" cy="-77" rx="152.942" ry="37.4767"/>
<text text-anchor="middle" x="1147" y="-86.9" font-family="Times,serif" font-size="14.00">com.tw.maven_demo.component2</text>
<text text-anchor="middle" x="1147" y="-71.9" font-family="Times,serif" font-size="14.00">parent</text>
<text text-anchor="middle" x="1147" y="-56.9" font-family="Times,serif" font-size="14.00">1.0.1</text>
</g>
<!-- com_tw_maven_demo_component2__d -->
<g id="node8" class="node"><title>com_tw_maven_demo_component2__d</title>
<ellipse fill="none" stroke="black" cx="823" cy="-301" rx="152.942" ry="26.8701"/>
<text text-anchor="middle" x="823" y="-303.4" font-family="Times,serif" font-size="14.00">com.tw.maven_demo.component2</text>
<text text-anchor="middle" x="823" y="-288.4" font-family="Times,serif" font-size="14.00">d</text>
</g>
<!-- com_tw_maven_demo_component2__e -->
<g id="node9" class="node"><title>com_tw_maven_demo_component2__e</title>
<ellipse fill="none" stroke="black" cx="1147" cy="-301" rx="152.942" ry="26.8701"/>
<text text-anchor="middle" x="1147" y="-303.4" font-family="Times,serif" font-size="14.00">com.tw.maven_demo.component2</text>
<text text-anchor="middle" x="1147" y="-288.4" font-family="Times,serif" font-size="14.00">e</text>
</g>
<!-- com_tw_maven_demo_component2__f -->
<g id="node10" class="node"><title>com_tw_maven_demo_component2__f</title>
<ellipse fill="none" stroke="black" cx="823" cy="-200" rx="152.942" ry="26.8701"/>
<text text-anchor="middle" x="823" y="-202.4" font-family="Times,serif" font-size="14.00">com.tw.maven_demo.component2</text>
<text text-anchor="middle" x="823" y="-187.4" font-family="Times,serif" font-size="14.00">f</text>
</g>
<!-- com_tw_maven_demo_component2__f&#45;&gt;com_tw_maven_demo_component1__a -->
<g id="edge9" class="edge"><title>com_tw_maven_demo_component2__f&#45;&gt;com_tw_maven_demo_component1__a</title>
<path fill="none" stroke="black" d="M735.182,-222.226C710.347,-227.965 683.214,-233.724 658,-238 513.847,-262.449 475.833,-253.974 331,-274 317.001,-275.936 302.351,-278.134 287.826,-280.42"/>
<polygon fill="black" stroke="black" points="287.126,-276.988 277.8,-282.015 288.225,-283.901 287.126,-276.988"/>
</g>
<!-- com_tw_maven_demo_component2__f&#45;&gt;com_tw_maven_demo_component1__b -->
<g id="edge11" class="edge"><title>com_tw_maven_demo_component2__f&#45;&gt;com_tw_maven_demo_component1__b</title>
<path fill="none" stroke="black" d="M746.462,-223.425C696.556,-238.699 631.322,-258.665 579.532,-274.516"/>
<polygon fill="black" stroke="black" points="578.232,-271.254 569.694,-277.527 580.28,-277.947 578.232,-271.254"/>
</g>
<!-- com_tw_maven_demo_component2__f&#45;&gt;com_tw_maven_demo_component2__d -->
<g id="edge13" class="edge"><title>com_tw_maven_demo_component2__f&#45;&gt;com_tw_maven_demo_component2__d</title>
<path fill="none" stroke="black" d="M823,-227.066C823,-238.274 823,-251.461 823,-263.571"/>
<polygon fill="black" stroke="black" points="819.5,-263.859 823,-273.859 826.5,-263.859 819.5,-263.859"/>
</g>
<!-- com_tw_maven_demo_component2__f&#45;&gt;com_tw_maven_demo_component2__e -->
<g id="edge15" class="edge"><title>com_tw_maven_demo_component2__f&#45;&gt;com_tw_maven_demo_component2__e</title>
<path fill="none" stroke="black" d="M898.555,-223.553C947.479,-238.804 1011.28,-258.692 1061.97,-274.495"/>
<polygon fill="black" stroke="black" points="1061.02,-277.863 1071.61,-277.498 1063.1,-271.18 1061.02,-277.863"/>
</g>
<!-- com_tw_maven_demo_component2__g -->
<g id="node11" class="node"><title>com_tw_maven_demo_component2__g</title>
<ellipse fill="none" stroke="black" cx="823" cy="-77" rx="152.942" ry="26.8701"/>
<text text-anchor="middle" x="823" y="-79.4" font-family="Times,serif" font-size="14.00">com.tw.maven_demo.component2</text>
<text text-anchor="middle" x="823" y="-64.4" font-family="Times,serif" font-size="14.00">g</text>
</g>
<!-- com_tw_maven_demo_component2__g&#45;&gt;com_tw_maven_demo_component2__f -->
<g id="edge17" class="edge"><title>com_tw_maven_demo_component2__g&#45;&gt;com_tw_maven_demo_component2__f</title>
<path fill="none" stroke="black" d="M823,-104.298C823,-121.496 823,-143.927 823,-162.749"/>
<polygon fill="black" stroke="black" points="819.5,-162.779 823,-172.779 826.5,-162.779 819.5,-162.779"/>
</g>
<!-- com_tw_maven_demo__global -->
<g id="node13" class="node"><title>com_tw_maven_demo__global</title>
<ellipse fill="none" stroke="black" cx="1423" cy="-77" rx="99.201" ry="37.4767"/>
<text text-anchor="middle" x="1423" y="-86.9" font-family="Times,serif" font-size="14.00">com.tw.maven_demo</text>
<text text-anchor="middle" x="1423" y="-71.9" font-family="Times,serif" font-size="14.00">global</text>
<text text-anchor="middle" x="1423" y="-56.9" font-family="Times,serif" font-size="14.00">1.7</text>
</g>
</g>
</svg>
